<svg width="25" height="26" viewBox="0 0 25 26" fill="none" xmlns="http://www.w3.org/2000/svg">
    <path fill-rule="evenodd" clip-rule="evenodd" d="M12.5212 2.69811C6.72416 2.69811 2.00809 7.41418 2.00809 13.2112C2.00809 19.0083 6.72416 23.7244 12.5212 23.7244C18.3183 23.7244 23.0344 19.0083 23.0344 13.2112C23.0344 7.41418 18.3183 2.69811 12.5212 2.69811ZM12.5212 25.5796C5.70129 25.5796 0.152832 20.0311 0.152832 13.2112C0.152832 6.39126 5.70129 0.842804 12.5212 0.842804C19.3412 0.842804 24.8896 6.39126 24.8896 13.2112C24.8896 20.0311 19.3412 25.5796 12.5212 25.5796Z" fill="#9E9E9E"/>
    <path fill-rule="evenodd" clip-rule="evenodd" d="M16.7648 17.7782C16.6028 17.7782 16.4395 17.7362 16.2899 17.6483L11.627 14.8667C11.3475 14.6985 11.1743 14.3955 11.1743 14.0689V8.07274C11.1743 7.56069 11.5899 7.14511 12.1019 7.14511C12.6152 7.14511 13.0296 7.56069 13.0296 8.07274V13.542L17.241 16.0528C17.6801 16.3163 17.8248 16.8852 17.5626 17.3255C17.3882 17.6162 17.0802 17.7782 16.7648 17.7782Z" fill="#9E9E9E"/>
</svg>
