<svg width="25" height="25" viewBox="0 0 25 25" fill="none" xmlns="http://www.w3.org/2000/svg">
    <path fill-rule="evenodd" clip-rule="evenodd" d="M1.64911 8.73488C0.889688 9.41835 0.456055 10.392 0.456055 11.4137V20.6206C0.456055 22.6111 2.06963 24.2246 4.06006 24.2246H20.8787C22.8692 24.2246 24.4827 22.6111 24.4827 20.6206V11.4137C24.4827 10.392 24.0491 9.41835 23.2897 8.73488L14.8804 1.16647C13.5098 -0.0670876 11.429 -0.0670876 10.0584 1.16648L1.64911 8.73488ZM11.2681 13.4126C9.94111 13.4126 8.8654 14.4883 8.8654 15.8153V20.6206C8.8654 21.2841 9.40326 21.822 10.0667 21.822H14.8721C15.5356 21.822 16.0734 21.2841 16.0734 20.6206V15.8153C16.0734 14.4883 14.9977 13.4126 13.6707 13.4126H11.2681Z" fill="#141416"/>
</svg>
