<svg width="23" height="23" viewBox="0 0 23 23" fill="none" xmlns="http://www.w3.org/2000/svg">
    <path fill-rule="evenodd" clip-rule="evenodd" d="M17.8867 14.6763C14.7841 14.6763 14.7841 14.9109 14.7841 17.7788V17.807C14.7841 19.056 14.7841 19.9585 15.0898 20.3399C15.3888 20.7099 16.2767 20.8814 17.8867 20.8814C19.4966 20.8814 20.3845 20.7088 20.6835 20.3387C20.9892 19.9585 20.9892 19.056 20.9892 17.8059C20.9892 14.9109 20.9892 14.6763 17.8867 14.6763ZM17.8867 22.5738C15.9845 22.5738 14.5573 22.3742 13.7732 21.4005C13.0918 20.5555 13.0918 19.4025 13.0918 17.8072L13.938 17.779H13.0918C13.0918 14.541 13.296 12.9841 17.8867 12.9841C22.4773 12.9841 22.6815 14.541 22.6815 17.779C22.6815 19.4013 22.6815 20.5555 22.0001 21.4005C21.216 22.3742 19.7888 22.5738 17.8867 22.5738Z" fill="#9E9E9E"/>
    <path fill-rule="evenodd" clip-rule="evenodd" d="M5.47651 14.6763C2.37394 14.6763 2.37394 14.9109 2.37394 17.7788V17.807C2.37394 19.056 2.37394 19.9585 2.67969 20.3399C2.97866 20.7099 3.86656 20.8814 5.47651 20.8814C7.08646 20.8814 7.97435 20.7088 8.27333 20.3387C8.57907 19.9585 8.57907 19.056 8.57907 17.8059C8.57907 14.9109 8.57907 14.6763 5.47651 14.6763ZM5.47651 22.5738C3.57436 22.5738 2.14718 22.3742 1.36308 21.4005C0.681641 20.5555 0.681641 19.4025 0.681641 17.8072L1.52779 17.779H0.681641C0.681641 14.541 0.885846 12.9841 5.47651 12.9841C10.0672 12.9841 10.2714 14.541 10.2714 17.779C10.2714 19.4013 10.2714 20.5555 9.58995 21.4005C8.80585 22.3742 7.37867 22.5738 5.47651 22.5738Z" fill="#9E9E9E"/>
    <path fill-rule="evenodd" clip-rule="evenodd" d="M17.8867 2.26607C14.7841 2.26607 14.7841 2.50074 14.7841 5.36863V5.39684C14.7841 6.64576 14.7841 7.54833 15.0898 7.92966C15.3888 8.29971 16.2767 8.4712 17.8867 8.4712C19.4966 8.4712 20.3845 8.29858 20.6835 7.92853C20.9892 7.54833 20.9892 6.64576 20.9892 5.39571C20.9892 2.50074 20.9892 2.26607 17.8867 2.26607ZM17.8867 10.1635C15.9845 10.1635 14.5573 9.96384 13.7732 8.9902C13.0918 8.14518 13.0918 6.99215 13.0918 5.39687L13.938 5.36866H13.0918C13.0918 2.13071 13.296 0.573792 17.8867 0.573792C22.4773 0.573792 22.6815 2.13071 22.6815 5.36866C22.6815 6.99102 22.6815 8.14518 22.0001 8.9902C21.216 9.96384 19.7888 10.1635 17.8867 10.1635Z" fill="#9E9E9E"/>
    <path fill-rule="evenodd" clip-rule="evenodd" d="M5.47651 2.26607C2.37394 2.26607 2.37394 2.50074 2.37394 5.36863V5.39684C2.37394 6.64576 2.37394 7.54833 2.67969 7.92966C2.97866 8.29971 3.86656 8.4712 5.47651 8.4712C7.08646 8.4712 7.97435 8.29858 8.27333 7.92853C8.57907 7.54833 8.57907 6.64576 8.57907 5.39571C8.57907 2.50074 8.57907 2.26607 5.47651 2.26607ZM5.47651 10.1635C3.57436 10.1635 2.14718 9.96384 1.36308 8.9902C0.681641 8.14518 0.681641 6.99215 0.681641 5.39687L1.52779 5.36866H0.681641C0.681641 2.13071 0.885846 0.573792 5.47651 0.573792C10.0672 0.573792 10.2714 2.13071 10.2714 5.36866C10.2714 6.99102 10.2714 8.14518 9.58995 8.9902C8.80585 9.96384 7.37867 10.1635 5.47651 10.1635Z" fill="#9E9E9E"/>
</svg>
