<svg width="120" height="143" viewBox="0 0 120 143" fill="none" xmlns="http://www.w3.org/2000/svg">
    <path d="M64.326 84.8978C66.9485 83.8988 69.1534 82.0379 70.579 79.6207L75.3019 71.6122C81.7017 60.7604 98.3325 65.2991 98.3325 77.8975V97.03C98.3325 103.863 92.793 109.403 85.9596 109.403H67.235C53.4966 109.403 49.9919 90.3584 62.8303 85.4676L64.326 84.8978Z" fill="#141718"/>
    <path d="M42.2568 68.6975C42.0791 71.4982 42.8587 74.276 44.4677 76.5753L49.7984 84.1927C57.0217 94.5146 45.9982 107.769 34.5329 102.547L17.1212 94.6172C10.9024 91.785 8.15695 84.4476 10.9892 78.2288L18.7499 61.1883C24.444 48.6855 43.2283 53.3893 42.3582 67.1001L42.2568 68.6975Z" fill="#141718"/>
    <path d="M65.5885 60.5929C63.41 58.8239 60.6949 57.8479 57.8887 57.8252L48.5916 57.75C35.9937 57.6482 31.5895 40.9812 42.4927 34.6694L59.0508 25.0839C64.9647 21.6604 72.5343 23.6792 75.9578 29.5931L85.3389 45.7981C92.2219 57.6879 77.4958 70.2625 66.831 61.6019L65.5885 60.5929Z" fill="#141718"/>
</svg>
