<svg width="25" height="28" viewBox="0 0 25 28" fill="none" xmlns="http://www.w3.org/2000/svg">
    <path fill-rule="evenodd" clip-rule="evenodd" d="M12.052 2.61805C9.70711 2.61805 7.80616 4.519 7.80616 6.86393C7.80616 9.20887 9.70711 11.1098 12.052 11.1098C14.397 11.1098 16.2979 9.20887 16.2979 6.86393C16.2979 4.519 14.397 2.61805 12.052 2.61805ZM6.00488 6.86393C6.00488 3.52418 8.71229 0.816772 12.052 0.816772C15.3918 0.816772 18.0992 3.52418 18.0992 6.86393C18.0992 10.2037 15.3918 12.9111 12.052 12.9111C8.71229 12.9111 6.00488 10.2037 6.00488 6.86393Z" fill="#9E9E9E"/>
    <path fill-rule="evenodd" clip-rule="evenodd" d="M2.81749 20.7287C4.68751 18.7308 7.72882 17.2269 12.3957 17.2269C17.0625 17.2269 20.1038 18.7308 21.9738 20.7287C23.8203 22.7014 24.4471 25.0742 24.4471 26.7051C24.4471 27.2025 24.0439 27.6057 23.5465 27.6057H1.24488C0.747469 27.6057 0.344238 27.2025 0.344238 26.7051C0.344238 25.0742 0.971031 22.7014 2.81749 20.7287ZM2.22211 25.8045H22.5692C22.3818 24.6484 21.8275 23.2083 20.6588 21.9596C19.1835 20.3835 16.6495 19.0282 12.3957 19.0282C8.14189 19.0282 5.6078 20.3835 4.13258 21.9596C2.96381 23.2083 2.40953 24.6484 2.22211 25.8045Z" fill="#9E9E9E"/>
</svg>
