<svg width="34" height="34" viewBox="0 0 34 34" fill="none" xmlns="http://www.w3.org/2000/svg">
    <path fill-rule="evenodd" clip-rule="evenodd" d="M29.464 17.1301C29.4954 17.0381 29.4995 16.9396 29.4746 16.8456C28.8807 14.6199 17.8563 8.2933 14.3921 7.2296C13.4896 6.95239 12.8357 7.06402 12.4518 7.56039C11.339 8.99707 13.6371 13.4645 14.9783 15.8005L21.9262 16.0445C22.3288 16.0586 22.6438 16.3973 22.6297 16.8011C22.6157 17.2049 22.2779 17.5207 21.8753 17.5066L14.8608 17.2596C13.3511 19.5261 10.8431 23.7127 11.8376 25.1998C11.8749 25.2556 11.9157 25.3081 11.9601 25.3558C12.3274 25.7509 12.9292 25.8547 13.7495 25.6648C17.2772 24.848 28.7153 19.3115 29.464 17.1301Z" fill="#DDDDE4"/>
</svg>
